<svg width="60" height="71" viewBox="0 0 60 71" fill="none" xmlns="http://www.w3.org/2000/svg">
<path d="M0 0H7.13328V32.3741H27.2162V38.41H0V0Z" fill="black"/>
<path d="M42.9873 32.3668C46.3161 32.3668 49.206 32.9155 51.6569 34.013C54.1445 35.1104 56.0467 36.6834 57.3636 38.7319C58.6805 40.7804 59.3389 43.2131 59.3389 46.0298C59.3389 48.8099 58.6805 51.2426 57.3636 53.3277C56.0467 55.3762 54.1445 56.9492 51.6569 58.0466C49.206 59.144 46.3161 59.6928 42.9873 59.6928H34.3176V70.7768H27.1843V32.3668H42.9873ZM42.658 53.6569C45.7674 53.6569 48.1269 52.9985 49.7365 51.6815C51.346 50.3646 52.1508 48.4807 52.1508 46.0298C52.1508 43.5789 51.346 41.695 49.7365 40.378C48.1269 39.0611 45.7674 38.4027 42.658 38.4027H34.3176V53.6569H42.658Z" fill="black"/>
</svg>
